PathFileType	4	(X/Y/Z)	Patient4_TMGait_0pt7_01_left_32.trc.trc
DataRate	CameraRate	NumFrames	NumMarkers	Units	OrigDataRate	OrigDataStartFrame	OrigNumFrames
84.848484848485	84.848484848485	4	33	mm	84.848484848485	89	       141
Frame#	Time	Sacral			L.Shoulder			Chest			R.Shoulder			Neck			R.ASIS			L.ASIS			R.Thigh.Superior			R.Thigh.Lateral			R.Thigh.Inferior			R.Patella			L.Thigh.Superior			L.Thigh.Lateral			L.Thigh.Inferior			L.Patella			L.Shank.Superior			L.Shank.Lateral			L.Shank.Inferior			R.Shank.Superior			R.Shank.Lateral			R.Shank.Inferior			R.Heel			R.Midfoot.Superior			R.Midfoot.Lateral			R.Toe			L.Heel			L.Midfoot.Lateral			L.Midfoot.Superior			L.Toe			L.Elbow			L.Wrist			R.Elbow			R.Wrist			
		X1	Y1	Z1	X2	Y2	Z2	X3	Y3	Z3	X4	Y4	Z4	X5	Y5	Z5	X6	Y6	Z6	X7	Y7	Z7	X8	Y8	Z8	X9	Y9	Z9	X10	Y10	Z10	X11	Y11	Z11	X12	Y12	Z12	X13	Y13	Z13	X14	Y14	Z14	X15	Y15	Z15	X16	Y16	Z16	X17	Y17	Z17	X18	Y18	Z18	X19	Y19	Z19	X20	Y20	Z20	X21	Y21	Z21	X22	Y22	Z22	X23	Y23	Z23	X24	Y24	Z24	X25	Y25	Z25	X26	Y26	Z26	X27	Y27	Z27	X28	Y28	Z28	X29	Y29	Z29	X30	Y30	Z30	X31	Y31	Z31	X32	Y32	Z32	X33	Y33	Z33	

89	37.987142857143	790.184683798127	993.227181225766	499.418092035492	984.812246365724	1422.545050181892	319.157966086226	1080.977800659615	1348.129507483492	483.526016915066	992.420759217221	1428.821052528497	652.351295440883	989.346917203398	1481.851770308197	472.754839735739	1019.744055279091	934.438205429652	620.110728887892	1002.850897837391	950.916107912302	342.609621008614	1088.253108471821	749.393789719401	589.417284276457	1023.410361885305	630.819828497639	647.334089789917	1108.893926107479	590.297133874541	567.720261292633	1124.026526043096	499.612363442022	574.564884400553	1049.641101906773	735.868532775152	369.401641056791	966.865800947637	620.327819895120	300.875661022546	1054.657749192309	536.437111675913	358.542111455567	1046.514664492716	449.564440958856	354.230449648354	974.652098652880	392.945870510072	347.528934587532	831.969416736752	356.609664167655	298.590833322517	811.989012194931	229.028722760136	354.798023915190	1097.746492054287	408.514079035260	581.916432690778	1030.337198091921	301.645480121538	642.337576666531	1077.601078776316	208.669024619170	580.892342376524	950.989102361278	42.492061903600	548.313760521849	1120.941419721240	99.020697999800	588.422395776015	1032.440606502713	36.842468839929	624.821806927196	1240.330510340265	47.813572419347	619.281581936896	618.309124923540	171.686464723453	388.857204172695	676.766991051763	117.809181169376	315.954680878942	779.722273430847	126.370118822045	339.990321754584	856.715701429204	30.116213209835	327.503839905694	989.798981121668	1084.606414341888	178.269835238432	1236.821949621511	1036.925160600792	228.500370174205	869.281666376050	1104.181887224377	767.118354984674	862.087273971153	841.921878850964	770.616342018286	
90	37.998928571429	789.191621206581	994.635619605761	503.118214822823	983.195719092022	1423.287253813386	321.175236194335	1081.041344476710	1348.665169218059	484.551558733943	994.526459035155	1429.391821857514	654.336948166964	989.384447832877	1482.592761100689	474.783156341279	1019.393668206443	935.385235025981	622.131643642294	1000.849816931915	951.400343625774	344.901572508569	1085.684332822108	748.492450687540	592.448730647553	1019.100910830263	630.832727526293	649.552107855165	1104.086987838346	589.551261177487	569.795395990149	1118.020344453427	498.877807068848	576.248655790242	1053.095270764727	739.486944592224	371.366555707289	975.075587715222	622.055700217580	301.615870690605	1065.821773083516	540.392584453297	358.849354586868	1059.492633482920	452.530197761532	354.012127345926	986.372336635836	395.758776553563	347.498495650483	842.331713618416	363.973642159152	298.970577046891	818.988835713159	236.629237031640	354.576094393402	1091.282039499486	407.989819520115	583.340129167853	1023.401005864775	301.289808179013	643.408175908893	1070.037921855696	208.286421711062	581.506843140470	942.749324095710	42.432658183371	548.485632936848	1112.615210238800	98.805225494063	588.653904087483	1024.167278682283	36.782333385696	624.997675870792	1232.104106769140	47.600503337160	619.464068373978	623.764579250259	189.015840973131	389.161309145700	678.721723258768	131.230358890509	316.114243380947	782.507185486281	133.131238320148	339.742309840714	852.317148879710	29.390819255635	327.015882356309	981.214023295703	1083.798548476364	182.794524871732	1226.156091218944	1022.013370675259	230.307780562555	878.712645357856	1101.504164296586	770.169859897663	881.727252231047	838.975417375090	771.626346224652	
91	38.010714285714	788.090531050270	995.978360390607	506.769997638857	981.420256023600	1423.889577692750	323.025387762344	1080.988198302306	1349.071765605426	485.384390819268	996.601770076432	1429.858216265307	656.138229945954	989.340526354740	1483.255959809660	476.648882040448	1018.920202240867	936.227540786718	624.061267755135	998.828784843434	951.824868132309	347.206377000147	1082.966207846314	747.639481457148	595.241478904243	1014.762202119269	630.844773792158	651.694023498252	1099.163478941285	588.809242423227	571.736029514856	1111.879249551657	498.157680971327	577.839080339296	1056.275701312745	743.459171807467	373.244473587213	982.896433790126	624.364632590119	302.246027264630	1076.408644835384	545.023493447807	359.127836413908	1072.077430176093	456.278037560730	353.842930102079	997.998627931009	399.170463025438	347.535183838728	852.925005622265	371.227068356525	299.319617280319	826.726314504278	244.170782348540	354.544224011778	1084.731968795748	407.475948696811	584.673978983154	1016.452013032023	300.932657926833	644.460837731418	1062.444337374364	207.912285138459	582.083600883701	934.473006613772	42.389581472337	548.663054003849	1104.280134900319	98.524085975103	588.861213471159	1015.868241021993	36.721557778020	625.172224530317	1223.869301875493	47.297676287459	619.620445900629	630.580271660969	204.968966083948	389.713731447629	682.304813875023	144.085472990784	316.371518990674	786.614681819570	140.128545339712	339.607490102467	849.908802159074	29.267434698285	326.295737633620	972.716319412040	1082.911499629815	187.363112534388	1214.527653245576	1006.154248842360	231.934237889982	888.397515915127	1098.958260724649	773.210993568400	902.364218597049	836.590453164294	772.494835122022	
92	38.022500000000	786.910455852537	997.262528959530	510.358463930791	979.515891496411	1424.386907808843	324.718381899749	1080.811873074551	1349.374230563050	486.040056370695	998.619115661347	1430.248381768984	657.760021162720	989.232029894228	1483.866788337099	478.356867887177	1018.349310339874	936.991373066626	625.899155734711	996.765618701933	952.213482481612	349.492092563066	1080.131834206592	746.864559655912	597.727597462690	1010.434402721187	630.874095560139	653.720413910312	1094.149803021538	588.081719227257	573.491503664627	1105.632245679834	497.463282214640	579.274415525788	1059.132754359338	747.774403963198	375.049342391927	990.228726533138	627.240079276484	302.806093285902	1086.328968941352	550.290147445813	359.389655863951	1084.154422378448	460.772129396507	353.691762892939	1009.417856655161	403.142510644256	347.606384900403	863.596368212283	378.189534807875	299.648695850982	835.193187118787	251.397494744658	354.661167292612	1078.123266216839	406.984594297959	585.882809423200	1009.507522487514	300.596754536339	645.476648478054	1054.832158982423	207.559584140352	582.608705122796	926.167892123157	42.363436828002	548.847350010763	1095.946521244660	98.217932908053	589.040691296865	1007.551899929236	36.666615827750	625.345559570426	1215.628420256402	46.944379156300	619.756673120988	638.648408705304	218.858101057332	390.491124502207	687.599600026849	155.771162753672	316.702074892210	792.203893447127	147.048673155142	339.522551025580	850.013472660966	29.874925753233	325.316669072399	964.354549221317	1081.966445494986	191.999190008819	1201.824767828925	989.510772207101	233.371923472701	898.371072580559	1096.560100867579	776.202714089573	923.933727902449	834.897389691925	773.131771219348	
